<svg xmlns="http://www.w3.org/2000/svg" viewBox="0 0 24 24" fill="#25D366">
  <path d="M12.04 2C6.58 2 2.13 6.45 2.13 11.91C2.13 13.86 2.74 15.71 3.87 17.23L2.08 21.87L6.87 20.13C8.35 21.15 10.08 21.69 12.04 21.69C17.5 21.69 21.95 17.24 21.95 11.78C21.95 6.32 17.5 2 12.04 2ZM12.04 20.09C10.42 20.09 8.84 19.63 7.47 18.76L7.19 18.59L4.47 19.45L5.35 16.83L5.16 16.54C4.21 15.1 3.73 13.46 3.73 11.76C3.73 7.27 7.41 3.59 12.04 3.59C16.67 3.59 20.35 7.27 20.35 11.9C20.35 16.53 16.67 20.09 12.04 20.09ZM16.28 13.76C16.02 13.63 14.9 13.08 14.67 13C14.43 12.92 14.25 12.88 14.07 13.14C13.89 13.4 13.4 14.08 13.25 14.26C13.1 14.44 12.95 14.46 12.69 14.33C11.18 13.65 10.15 12.97 9.38 11.9C9.16 11.58 9.6 11.2 9.82 10.83C9.9 10.7 9.94 10.59 9.98 10.5C10.02 10.41 10.04 10.33 10.02 10.25C10 10.17 9.71 9.27 9.59 8.93C9.47 8.59 9.35 8.57 9.23 8.57C9.12 8.57 8.99 8.57 8.86 8.57C8.73 8.57 8.51 8.62 8.33 8.82C8.15 9.02 7.64 9.67 7.64 11C7.64 12.33 8.5 13.57 8.63 13.76C8.76 13.95 9.58 15.42 10.93 16.16C11.68 16.55 12.27 16.76 12.72 16.91C13.47 17.16 14.15 17.11 14.68 16.98C15.27 16.84 16.51 16.36 16.73 15.82C16.95 15.28 16.95 14.81 16.87 14.69C16.79 14.57 16.54 14.45 16.28 14.32V13.76Z"/>
</svg>